# xmcd
#
# Track frame offsets: 
#        150
#        17196
#        40042
#        58913
#        75436
#        93700
#        112514
#        131305
#        145301
#        163767
#        186757
#        210019
#        229565
#        255145
#
# Disc length: 3636 seconds
#
# Revision: 0
# Processed by: cddbd v1.5PL3 Copyright (c) Steve Scherf et al.
# Submitted via: ExactAudioCopy v0.95a5
#
DISCID=a30e320e
DTITLE=2000 Lbs Of Blues - Almost The Greatest Show On Earth
DYEAR=2003
DGENRE=
TTITLE0=Lil' Elvis
TTITLE1=Walk Right In (The Walkin' Blues)
TTITLE2=Early In The Morning
TTITLE3=Lemonade
TTITLE4=Clownfaced Woman
TTITLE5=Walking Downtown
TTITLE6=Honey Bee
TTITLE7=I Like My Baby's Puddin'
TTITLE8=TV Mama
TTITLE9=The Walk-A-Round
TTITLE10=Pink Champagne
TTITLE11=Raul Is Cookin' Tonight
TTITLE12=Boogie Monster
TTITLE13=Last Call
EXTD=
EXTT0=
EXTT1=
EXTT2=
EXTT3=
EXTT4=
EXTT5=
EXTT6=
EXTT7=
EXTT8=
EXTT9=
EXTT10=
EXTT11=
EXTT12=
EXTT13=
PLAYORDER=
